# xmcd
#
# Track frame offsets: 
#        150
#        12644
#        22636
#        32984
#        44798
#        54089
#        64250
#        74896
#        86780
#        96820
#        109031
#        120382
#
# Disc length: 1744 seconds
#
# Revision: 0
# Processed by: cddbd v1.5.2PL0 Copyright (c) Steve Scherf et al.
# Submitted via: ExactAudioCopy v1.0b1
#
DISCID=a406ce0c
DTITLE=Johnny Horton - Done Rovin'
DYEAR=1964
DGENRE=Country
TTITLE0=Done Rovin'
TTITLE1=Mean Mean Son Of A Gun
TTITLE2=Devilish Love Light
TTITLE3=Shadows On The Old Bayou
TTITLE4=Talk Gobbler Talk (Old Gobbler The Hound Dog)
TTITLE5=In My Home In Shelby County
TTITLE6=Go And Wash Your Dirty Feet (Barefoot Boy Blues)
TTITLE7=On The Banks Of The Beautiful Nile
TTITLE8=It's A Long Rocky Road
TTITLE9=Woods
TTITLE10=Smokey Joe's Barbecue
TTITLE11=Coal Smoke Valve Oil And Steam
EXTD=
EXTT0=
EXTT1=
EXTT2=
EXTT3=
EXTT4=
EXTT5=
EXTT6=
EXTT7=
EXTT8=
EXTT9=
EXTT10=
EXTT11=
PLAYORDER=
